<svg version="1.1" viewBox="0.0 0.0 960.0 720.0" fill="none" stroke="none" stroke-linecap="square" stroke-miterlimit="10" xmlns:xlink="http://www.w3.org/1999/xlink" xmlns="http://www.w3.org/2000/svg"><clipPath id="p.0"><path d="m0 0l960.0 0l0 720.0l-960.0 0l0 -720.0z" clip-rule="nonzero"/></clipPath><g clip-path="url(#p.0)"><path fill="#000000" fill-opacity="0.0" d="m0 0l960.0 0l0 720.0l-960.0 0z" fill-rule="evenodd"/><path fill="#3f8bde" d="m119.99475 134.8605l0 0c0 -61.857124 50.14511 -112.002235 112.00224 -112.002235l447.99548 0l0 0c29.704834 0 58.193054 11.800203 79.19757 32.804695c21.004456 21.004494 32.804688 49.492706 32.804688 79.19754l0 447.9955c0 61.857117 -50.14514 112.00226 -112.00226 112.00226l-447.99548 0c-61.857132 0 -112.00224 -50.14514 -112.00224 -112.00226z" fill-rule="evenodd"/><path stroke="#0f172a" stroke-width="1.0" stroke-linejoin="round" stroke-linecap="butt" d="m119.99475 134.8605l0 0c0 -61.857124 50.14511 -112.002235 112.00224 -112.002235l447.99548 0l0 0c29.704834 0 58.193054 11.800203 79.19757 32.804695c21.004456 21.004494 32.804688 49.492706 32.804688 79.19754l0 447.9955c0 61.857117 -50.14514 112.00226 -112.00226 112.00226l-447.99548 0c-61.857132 0 -112.00224 -50.14514 -112.00224 -112.00226z" fill-rule="evenodd"/><path fill="#000000" fill-opacity="0.0" d="m211.39699 78.15057l489.19684 0l0 561.4173l-489.19684 0z" fill-rule="evenodd"/><path fill="#0f172a" d="m384.66263 601.82245q-30.9375 0 -69.859375 -5.34375q-21.34375 -2.65625 -29.34375 -11.1875q-8.0 -8.546875 -6.9375 -27.734375q3.734375 -52.8125 17.59375 -130.40625q13.875 -77.59375 33.609375 -149.59375q3.734375 -13.34375 14.9375 -18.671875q11.203125 -5.328125 29.328125 -5.328125q32.53125 0 32.53125 18.125q0 7.46875 -3.1875 17.078125q-13.875 42.65625 -27.75 114.390625q-13.859375 71.734375 -19.71875 136.79688q16.0 1.609375 36.265625 1.609375q93.328125 0 139.4531 -56.53125q46.140625 -56.546875 46.140625 -150.9375q0 -63.46875 -36.265625 -98.125q-36.265594 -34.671875 -102.390594 -34.671875q-42.671875 0 -84.546875 13.328125q-41.859375 13.328125 -75.453125 35.203125q-6.9375 4.796875 -14.9375 4.796875q-9.062515 0 -14.406265 -7.734375q-5.328125 -7.734375 -5.328125 -18.9375q0 -12.796875 4.265625 -21.0625q4.265625 -8.265625 14.406265 -15.203125q36.796875 -25.0625 86.390625 -38.125q49.609375 -13.0625 95.46875 -13.0625q65.0625 0 112.53122 22.671875q47.46875 22.65625 73.0625 66.390625q25.609375 43.734375 25.609375 105.59375q0 80.53125 -32.0 140.53125q-32.0 60.0 -93.34375 93.078125q-61.328094 33.0625 -146.12497 33.0625z" fill-rule="nonzero"/></g></svg>